<mxfile host="app.diagrams.net" modified="2024-07-04T16:27:44.074Z" agent="Mozilla/5.0 (Windows NT 10.0; Win64; x64) AppleWebKit/537.36 (KHTML, like Gecko) Chrome/126.0.0.0 Safari/537.36" etag="S3dRedIi27yU3myadgAw" version="24.6.2" type="device">
  <diagram name="Pagina-1" id="LHME9eCjiF_hHvRtUEJ9">
    <mxGraphModel dx="624" dy="1238" grid="1" gridSize="10" guides="1" tooltips="1" connect="1" arrows="1" fold="1" page="1" pageScale="1" pageWidth="827" pageHeight="1169" math="0" shadow="0">
      <root>
        <mxCell id="0" />
        <mxCell id="1" parent="0" />
        <mxCell id="-n6oCdsHRTcv7yYSCDpn-2" value="" style="edgeStyle=orthogonalEdgeStyle;rounded=0;orthogonalLoop=1;jettySize=auto;html=1;labelBackgroundColor=none;fontColor=default;strokeColor=#457B9D;" parent="1" source="RfApW454ayCiRWNs9ttk-1" target="-n6oCdsHRTcv7yYSCDpn-1" edge="1">
          <mxGeometry relative="1" as="geometry" />
        </mxCell>
        <mxCell id="RfApW454ayCiRWNs9ttk-1" value="LOGIN.PHP" style="rounded=0;whiteSpace=wrap;html=1;labelBackgroundColor=none;fillColor=#A8DADC;strokeColor=#457B9D;fontColor=#1D3557;" parent="1" vertex="1">
          <mxGeometry x="100" y="200" width="120" height="60" as="geometry" />
        </mxCell>
        <mxCell id="-n6oCdsHRTcv7yYSCDpn-3" style="edgeStyle=orthogonalEdgeStyle;rounded=0;orthogonalLoop=1;jettySize=auto;html=1;entryX=0;entryY=0.5;entryDx=0;entryDy=0;labelBackgroundColor=none;fontColor=default;strokeColor=#457B9D;" parent="1" source="-n6oCdsHRTcv7yYSCDpn-1" target="-n6oCdsHRTcv7yYSCDpn-5" edge="1">
          <mxGeometry relative="1" as="geometry">
            <mxPoint x="460" y="40" as="targetPoint" />
            <Array as="points">
              <mxPoint x="455" y="200" />
              <mxPoint x="455" y="60" />
            </Array>
          </mxGeometry>
        </mxCell>
        <mxCell id="-n6oCdsHRTcv7yYSCDpn-6" value="&lt;div&gt;click on Prenota Esame&lt;/div&gt;" style="edgeLabel;html=1;align=center;verticalAlign=middle;resizable=0;points=[];labelBackgroundColor=none;fontColor=#1D3557;" parent="-n6oCdsHRTcv7yYSCDpn-3" vertex="1" connectable="0">
          <mxGeometry x="0.0667" y="-2" relative="1" as="geometry">
            <mxPoint as="offset" />
          </mxGeometry>
        </mxCell>
        <mxCell id="-n6oCdsHRTcv7yYSCDpn-13" style="edgeStyle=orthogonalEdgeStyle;rounded=0;orthogonalLoop=1;jettySize=auto;html=1;exitX=1;exitY=1;exitDx=0;exitDy=0;entryX=0;entryY=0.5;entryDx=0;entryDy=0;labelBackgroundColor=none;fontColor=default;strokeColor=#457B9D;" parent="1" source="-n6oCdsHRTcv7yYSCDpn-1" target="-n6oCdsHRTcv7yYSCDpn-12" edge="1">
          <mxGeometry relative="1" as="geometry" />
        </mxCell>
        <mxCell id="-n6oCdsHRTcv7yYSCDpn-14" value="click on Elimina prenotazioni" style="edgeLabel;html=1;align=center;verticalAlign=middle;resizable=0;points=[];labelBackgroundColor=none;fontColor=#1D3557;" parent="-n6oCdsHRTcv7yYSCDpn-13" vertex="1" connectable="0">
          <mxGeometry x="0.1168" y="-2" relative="1" as="geometry">
            <mxPoint x="17" y="-22" as="offset" />
          </mxGeometry>
        </mxCell>
        <mxCell id="-n6oCdsHRTcv7yYSCDpn-1" value="INDEX.PHP&lt;div&gt;&amp;nbsp;&amp;amp;&amp;amp; tipoUtente = Paziente&lt;/div&gt;" style="rounded=0;whiteSpace=wrap;html=1;labelBackgroundColor=none;fillColor=#A8DADC;strokeColor=#457B9D;fontColor=#1D3557;" parent="1" vertex="1">
          <mxGeometry x="300" y="200" width="120" height="60" as="geometry" />
        </mxCell>
        <mxCell id="-n6oCdsHRTcv7yYSCDpn-5" value="PRENOTA.PHP" style="whiteSpace=wrap;html=1;labelBackgroundColor=none;fillColor=#A8DADC;strokeColor=#457B9D;fontColor=#1D3557;" parent="1" vertex="1">
          <mxGeometry x="580" y="30" width="120" height="60" as="geometry" />
        </mxCell>
        <mxCell id="-n6oCdsHRTcv7yYSCDpn-8" value="PRENOTAZIONI.PHP" style="rounded=0;whiteSpace=wrap;html=1;labelBackgroundColor=none;fillColor=#A8DADC;strokeColor=#457B9D;fontColor=#1D3557;" parent="1" vertex="1">
          <mxGeometry x="580" y="190" width="120" height="60" as="geometry" />
        </mxCell>
        <mxCell id="-n6oCdsHRTcv7yYSCDpn-9" style="edgeStyle=orthogonalEdgeStyle;rounded=0;orthogonalLoop=1;jettySize=auto;html=1;exitX=1;exitY=0.25;exitDx=0;exitDy=0;entryX=-0.006;entryY=0.414;entryDx=0;entryDy=0;entryPerimeter=0;labelBackgroundColor=none;fontColor=default;strokeColor=#457B9D;" parent="1" source="-n6oCdsHRTcv7yYSCDpn-1" target="-n6oCdsHRTcv7yYSCDpn-8" edge="1">
          <mxGeometry relative="1" as="geometry" />
        </mxCell>
        <mxCell id="-n6oCdsHRTcv7yYSCDpn-10" value="click on&lt;div&gt;Visualizza prenotazioni&lt;/div&gt;" style="edgeLabel;html=1;align=center;verticalAlign=middle;resizable=0;points=[];labelBackgroundColor=none;fontColor=#1D3557;" parent="-n6oCdsHRTcv7yYSCDpn-9" vertex="1" connectable="0">
          <mxGeometry x="-0.1665" y="-1" relative="1" as="geometry">
            <mxPoint x="9" y="24" as="offset" />
          </mxGeometry>
        </mxCell>
        <mxCell id="-n6oCdsHRTcv7yYSCDpn-12" value="ELIMINAPRENOTAZIONI:PHP" style="whiteSpace=wrap;html=1;labelBackgroundColor=none;fillColor=#A8DADC;strokeColor=#457B9D;fontColor=#1D3557;" parent="1" vertex="1">
          <mxGeometry x="580" y="290" width="180" height="60" as="geometry" />
        </mxCell>
        <mxCell id="-n6oCdsHRTcv7yYSCDpn-16" value="" style="endArrow=none;html=1;rounded=0;exitX=0;exitY=0.5;exitDx=0;exitDy=0;labelBackgroundColor=none;fontColor=default;strokeColor=#457B9D;" parent="1" source="-n6oCdsHRTcv7yYSCDpn-18" edge="1">
          <mxGeometry width="50" height="50" relative="1" as="geometry">
            <mxPoint x="260" y="490" as="sourcePoint" />
            <mxPoint x="260" y="230" as="targetPoint" />
            <Array as="points">
              <mxPoint x="260" y="430" />
            </Array>
          </mxGeometry>
        </mxCell>
        <mxCell id="-n6oCdsHRTcv7yYSCDpn-17" value="In base alle informazioni inserite:&lt;div&gt;se errate ritorna in login.php&lt;/div&gt;&lt;div&gt;altrimenti index.php diverso in base al&lt;/div&gt;&lt;div&gt;tipo di ruolo&lt;/div&gt;" style="text;html=1;align=center;verticalAlign=middle;resizable=0;points=[];autosize=1;strokeColor=none;fillColor=none;labelBackgroundColor=none;fontColor=#1D3557;" parent="1" vertex="1">
          <mxGeometry x="30" y="258" width="220" height="70" as="geometry" />
        </mxCell>
        <mxCell id="-n6oCdsHRTcv7yYSCDpn-24" value="" style="edgeStyle=orthogonalEdgeStyle;rounded=0;orthogonalLoop=1;jettySize=auto;html=1;labelBackgroundColor=none;fontColor=default;strokeColor=#457B9D;" parent="1" source="-n6oCdsHRTcv7yYSCDpn-18" target="-n6oCdsHRTcv7yYSCDpn-23" edge="1">
          <mxGeometry relative="1" as="geometry" />
        </mxCell>
        <mxCell id="-n6oCdsHRTcv7yYSCDpn-26" value="click on Prescrivi Esame" style="edgeLabel;html=1;align=center;verticalAlign=middle;resizable=0;points=[];labelBackgroundColor=none;fontColor=#1D3557;" parent="-n6oCdsHRTcv7yYSCDpn-24" vertex="1" connectable="0">
          <mxGeometry x="-0.1096" y="1" relative="1" as="geometry">
            <mxPoint y="-9" as="offset" />
          </mxGeometry>
        </mxCell>
        <mxCell id="-n6oCdsHRTcv7yYSCDpn-29" style="edgeStyle=orthogonalEdgeStyle;rounded=0;orthogonalLoop=1;jettySize=auto;html=1;exitX=1;exitY=0.75;exitDx=0;exitDy=0;entryX=0;entryY=0.5;entryDx=0;entryDy=0;labelBackgroundColor=none;fontColor=default;strokeColor=#457B9D;" parent="1" source="-n6oCdsHRTcv7yYSCDpn-18" target="-n6oCdsHRTcv7yYSCDpn-28" edge="1">
          <mxGeometry relative="1" as="geometry">
            <Array as="points">
              <mxPoint x="420" y="540" />
            </Array>
          </mxGeometry>
        </mxCell>
        <mxCell id="-n6oCdsHRTcv7yYSCDpn-31" value="click on Visualizza Prescrizioni" style="edgeLabel;html=1;align=center;verticalAlign=middle;resizable=0;points=[];labelBackgroundColor=none;fontColor=#1D3557;" parent="-n6oCdsHRTcv7yYSCDpn-29" vertex="1" connectable="0">
          <mxGeometry x="0.1988" y="2" relative="1" as="geometry">
            <mxPoint x="22" y="12" as="offset" />
          </mxGeometry>
        </mxCell>
        <mxCell id="-n6oCdsHRTcv7yYSCDpn-18" value="INDEX.PHP&lt;div&gt;&amp;amp;&amp;amp; tipoUtente =&lt;/div&gt;&lt;div&gt;Medico&lt;/div&gt;" style="whiteSpace=wrap;html=1;labelBackgroundColor=none;fillColor=#A8DADC;strokeColor=#457B9D;fontColor=#1D3557;" parent="1" vertex="1">
          <mxGeometry x="300" y="400" width="120" height="60" as="geometry" />
        </mxCell>
        <mxCell id="-n6oCdsHRTcv7yYSCDpn-23" value="CREAPRESCRIZIONE.PHP" style="whiteSpace=wrap;html=1;labelBackgroundColor=none;fillColor=#A8DADC;strokeColor=#457B9D;fontColor=#1D3557;" parent="1" vertex="1">
          <mxGeometry x="580" y="400" width="180" height="60" as="geometry" />
        </mxCell>
        <mxCell id="-n6oCdsHRTcv7yYSCDpn-28" value="VISUALIZZAPRESCRIZIONE.PHP" style="whiteSpace=wrap;html=1;labelBackgroundColor=none;fillColor=#A8DADC;strokeColor=#457B9D;fontColor=#1D3557;" parent="1" vertex="1">
          <mxGeometry x="580" y="510" width="210" height="60" as="geometry" />
        </mxCell>
        <mxCell id="-n6oCdsHRTcv7yYSCDpn-32" value="" style="endArrow=none;html=1;rounded=0;labelBackgroundColor=none;fontColor=default;strokeColor=#457B9D;" parent="1" edge="1">
          <mxGeometry width="50" height="50" relative="1" as="geometry">
            <mxPoint x="260" y="730" as="sourcePoint" />
            <mxPoint x="260" y="430" as="targetPoint" />
          </mxGeometry>
        </mxCell>
        <mxCell id="-n6oCdsHRTcv7yYSCDpn-33" value="" style="endArrow=none;html=1;rounded=0;labelBackgroundColor=none;fontColor=default;strokeColor=#457B9D;" parent="1" target="-n6oCdsHRTcv7yYSCDpn-34" edge="1">
          <mxGeometry width="50" height="50" relative="1" as="geometry">
            <mxPoint x="260" y="730" as="sourcePoint" />
            <mxPoint x="290" y="730" as="targetPoint" />
          </mxGeometry>
        </mxCell>
        <mxCell id="-n6oCdsHRTcv7yYSCDpn-37" style="edgeStyle=orthogonalEdgeStyle;rounded=0;orthogonalLoop=1;jettySize=auto;html=1;exitX=1;exitY=0.25;exitDx=0;exitDy=0;entryX=0;entryY=0.5;entryDx=0;entryDy=0;labelBackgroundColor=none;fontColor=default;strokeColor=#457B9D;" parent="1" source="-n6oCdsHRTcv7yYSCDpn-34" target="-n6oCdsHRTcv7yYSCDpn-36" edge="1">
          <mxGeometry relative="1" as="geometry" />
        </mxCell>
        <mxCell id="-n6oCdsHRTcv7yYSCDpn-41" style="edgeStyle=orthogonalEdgeStyle;rounded=0;orthogonalLoop=1;jettySize=auto;html=1;exitX=1;exitY=0.5;exitDx=0;exitDy=0;entryX=0;entryY=0.5;entryDx=0;entryDy=0;labelBackgroundColor=none;fontColor=default;strokeColor=#457B9D;" parent="1" source="-n6oCdsHRTcv7yYSCDpn-34" target="-n6oCdsHRTcv7yYSCDpn-40" edge="1">
          <mxGeometry relative="1" as="geometry" />
        </mxCell>
        <mxCell id="-n6oCdsHRTcv7yYSCDpn-50" style="edgeStyle=orthogonalEdgeStyle;rounded=0;orthogonalLoop=1;jettySize=auto;html=1;exitX=1;exitY=0.75;exitDx=0;exitDy=0;entryX=0;entryY=0.5;entryDx=0;entryDy=0;labelBackgroundColor=none;fontColor=default;strokeColor=#457B9D;" parent="1" source="-n6oCdsHRTcv7yYSCDpn-34" target="-n6oCdsHRTcv7yYSCDpn-49" edge="1">
          <mxGeometry relative="1" as="geometry">
            <Array as="points">
              <mxPoint x="440" y="745" />
              <mxPoint x="440" y="850" />
            </Array>
          </mxGeometry>
        </mxCell>
        <mxCell id="-n6oCdsHRTcv7yYSCDpn-54" style="edgeStyle=orthogonalEdgeStyle;rounded=0;orthogonalLoop=1;jettySize=auto;html=1;exitX=1;exitY=1;exitDx=0;exitDy=0;entryX=0;entryY=0.5;entryDx=0;entryDy=0;labelBackgroundColor=none;fontColor=default;strokeColor=#457B9D;" parent="1" source="-n6oCdsHRTcv7yYSCDpn-34" target="-n6oCdsHRTcv7yYSCDpn-53" edge="1">
          <mxGeometry relative="1" as="geometry" />
        </mxCell>
        <mxCell id="-n6oCdsHRTcv7yYSCDpn-34" value="INDEX.PHP&lt;div&gt;&amp;amp;&amp;amp; tipoUtente = DBA&lt;/div&gt;" style="rounded=0;whiteSpace=wrap;html=1;labelBackgroundColor=none;fillColor=#A8DADC;strokeColor=#457B9D;fontColor=#1D3557;" parent="1" vertex="1">
          <mxGeometry x="300" y="700" width="120" height="60" as="geometry" />
        </mxCell>
        <mxCell id="-n6oCdsHRTcv7yYSCDpn-36" value="INSERISCI.PHP" style="whiteSpace=wrap;html=1;labelBackgroundColor=none;fillColor=#A8DADC;strokeColor=#457B9D;fontColor=#1D3557;" parent="1" vertex="1">
          <mxGeometry x="580" y="650" width="120" height="60" as="geometry" />
        </mxCell>
        <mxCell id="-n6oCdsHRTcv7yYSCDpn-39" value="prima form:&lt;br&gt;value = inserimento" style="text;html=1;align=center;verticalAlign=middle;resizable=0;points=[];autosize=1;strokeColor=none;fillColor=none;labelBackgroundColor=none;fontColor=#1D3557;" parent="1" vertex="1">
          <mxGeometry x="420" y="640" width="130" height="40" as="geometry" />
        </mxCell>
        <mxCell id="-n6oCdsHRTcv7yYSCDpn-46" value="" style="edgeStyle=orthogonalEdgeStyle;rounded=0;orthogonalLoop=1;jettySize=auto;html=1;labelBackgroundColor=none;fontColor=default;strokeColor=#457B9D;" parent="1" source="-n6oCdsHRTcv7yYSCDpn-40" target="-n6oCdsHRTcv7yYSCDpn-45" edge="1">
          <mxGeometry relative="1" as="geometry" />
        </mxCell>
        <mxCell id="-n6oCdsHRTcv7yYSCDpn-40" value="MODIFICA.PHP" style="whiteSpace=wrap;html=1;labelBackgroundColor=none;fillColor=#A8DADC;strokeColor=#457B9D;fontColor=#1D3557;" parent="1" vertex="1">
          <mxGeometry x="580" y="730" width="120" height="60" as="geometry" />
        </mxCell>
        <mxCell id="-n6oCdsHRTcv7yYSCDpn-44" value="value = modifica" style="text;html=1;align=center;verticalAlign=middle;resizable=0;points=[];autosize=1;strokeColor=none;fillColor=none;labelBackgroundColor=none;fontColor=#1D3557;" parent="1" vertex="1">
          <mxGeometry x="440" y="760" width="110" height="30" as="geometry" />
        </mxCell>
        <mxCell id="-n6oCdsHRTcv7yYSCDpn-45" value="MODIFY.PHP" style="whiteSpace=wrap;html=1;labelBackgroundColor=none;fillColor=#A8DADC;strokeColor=#457B9D;fontColor=#1D3557;" parent="1" vertex="1">
          <mxGeometry x="850" y="730" width="120" height="60" as="geometry" />
        </mxCell>
        <mxCell id="-n6oCdsHRTcv7yYSCDpn-47" value="scelta dell&#39;elemento&amp;nbsp;&lt;div&gt;da modificare&lt;/div&gt;" style="text;html=1;align=center;verticalAlign=middle;resizable=0;points=[];autosize=1;strokeColor=none;fillColor=none;labelBackgroundColor=none;fontColor=#1D3557;" parent="1" vertex="1">
          <mxGeometry x="710" y="760" width="130" height="40" as="geometry" />
        </mxCell>
        <mxCell id="-n6oCdsHRTcv7yYSCDpn-49" value="ELIMINA.PHP" style="whiteSpace=wrap;html=1;labelBackgroundColor=none;fillColor=#A8DADC;strokeColor=#457B9D;fontColor=#1D3557;" parent="1" vertex="1">
          <mxGeometry x="580" y="820" width="120" height="60" as="geometry" />
        </mxCell>
        <mxCell id="-n6oCdsHRTcv7yYSCDpn-51" value="value = eliminazione" style="text;html=1;align=center;verticalAlign=middle;resizable=0;points=[];autosize=1;strokeColor=none;fillColor=none;labelBackgroundColor=none;fontColor=#1D3557;" parent="1" vertex="1">
          <mxGeometry x="435" y="848" width="130" height="30" as="geometry" />
        </mxCell>
        <mxCell id="-n6oCdsHRTcv7yYSCDpn-53" value="VISUALIZZA.PHP" style="whiteSpace=wrap;html=1;labelBackgroundColor=none;fillColor=#A8DADC;strokeColor=#457B9D;fontColor=#1D3557;" parent="1" vertex="1">
          <mxGeometry x="580" y="950" width="120" height="60" as="geometry" />
        </mxCell>
        <mxCell id="-n6oCdsHRTcv7yYSCDpn-55" value="seconda form:&lt;div&gt;scelta del reparto di cui si vuole&lt;/div&gt;&lt;div&gt;conoscere il personale&lt;/div&gt;" style="text;html=1;align=center;verticalAlign=middle;resizable=0;points=[];autosize=1;strokeColor=none;fillColor=none;labelBackgroundColor=none;fontColor=#1D3557;" parent="1" vertex="1">
          <mxGeometry x="390" y="980" width="190" height="60" as="geometry" />
        </mxCell>
        <mxCell id="-n6oCdsHRTcv7yYSCDpn-56" style="edgeStyle=orthogonalEdgeStyle;rounded=0;orthogonalLoop=1;jettySize=auto;html=1;exitX=0.75;exitY=1;exitDx=0;exitDy=0;entryX=0.25;entryY=1;entryDx=0;entryDy=0;labelBackgroundColor=none;fontColor=default;strokeColor=#457B9D;" parent="1" source="-n6oCdsHRTcv7yYSCDpn-34" target="-n6oCdsHRTcv7yYSCDpn-34" edge="1">
          <mxGeometry relative="1" as="geometry">
            <Array as="points">
              <mxPoint x="390" y="840" />
              <mxPoint x="330" y="840" />
            </Array>
          </mxGeometry>
        </mxCell>
        <mxCell id="-n6oCdsHRTcv7yYSCDpn-57" value="terza form:&lt;div&gt;interrogazioni&lt;/div&gt;&lt;div&gt;SQL&lt;/div&gt;" style="text;html=1;align=center;verticalAlign=middle;resizable=0;points=[];autosize=1;strokeColor=none;fillColor=none;labelBackgroundColor=none;fontColor=#1D3557;" parent="1" vertex="1">
          <mxGeometry x="310" y="840" width="100" height="60" as="geometry" />
        </mxCell>
        <mxCell id="n5YymYNzjmNfupJJ3Dk0-1" value="" style="endArrow=none;html=1;rounded=0;exitX=0;exitY=0.5;exitDx=0;exitDy=0;labelBackgroundColor=none;fontColor=default;strokeColor=#457B9D;" edge="1" parent="1" source="n5YymYNzjmNfupJJ3Dk0-3">
          <mxGeometry width="50" height="50" relative="1" as="geometry">
            <mxPoint x="280" y="1110" as="sourcePoint" />
            <mxPoint x="260" y="730" as="targetPoint" />
            <Array as="points">
              <mxPoint x="260" y="1110" />
            </Array>
          </mxGeometry>
        </mxCell>
        <mxCell id="n5YymYNzjmNfupJJ3Dk0-5" value="" style="edgeStyle=orthogonalEdgeStyle;rounded=0;orthogonalLoop=1;jettySize=auto;html=1;entryX=0.5;entryY=1;entryDx=0;entryDy=0;labelBackgroundColor=none;fontColor=default;strokeColor=#457B9D;" edge="1" parent="1" source="n5YymYNzjmNfupJJ3Dk0-3" target="-n6oCdsHRTcv7yYSCDpn-53">
          <mxGeometry relative="1" as="geometry">
            <mxPoint x="580" y="1110" as="targetPoint" />
          </mxGeometry>
        </mxCell>
        <mxCell id="n5YymYNzjmNfupJJ3Dk0-3" value="INDEX.PHP&lt;div&gt;&amp;amp;&amp;amp; tipoUtente =&amp;nbsp;&lt;/div&gt;&lt;div&gt;Personale Amministrativo&lt;/div&gt;" style="whiteSpace=wrap;html=1;labelBackgroundColor=none;fillColor=#A8DADC;strokeColor=#457B9D;fontColor=#1D3557;" vertex="1" parent="1">
          <mxGeometry x="300" y="1080" width="120" height="60" as="geometry" />
        </mxCell>
        <mxCell id="n5YymYNzjmNfupJJ3Dk0-6" value="prima form:&lt;div&gt;scelta del reparto di cui si vuole&lt;/div&gt;&lt;div&gt;conoscere il personale&lt;/div&gt;&lt;div&gt;dell&#39;ospedale in cui lavora&lt;/div&gt;" style="text;html=1;align=center;verticalAlign=middle;resizable=0;points=[];autosize=1;strokeColor=none;fillColor=none;labelBackgroundColor=none;fontColor=#1D3557;" vertex="1" parent="1">
          <mxGeometry x="445" y="1088" width="190" height="70" as="geometry" />
        </mxCell>
        <mxCell id="n5YymYNzjmNfupJJ3Dk0-7" style="edgeStyle=orthogonalEdgeStyle;rounded=0;orthogonalLoop=1;jettySize=auto;html=1;exitX=0.75;exitY=1;exitDx=0;exitDy=0;entryX=0.25;entryY=1;entryDx=0;entryDy=0;labelBackgroundColor=none;fontColor=default;strokeColor=#457B9D;" edge="1" parent="1" source="n5YymYNzjmNfupJJ3Dk0-3" target="n5YymYNzjmNfupJJ3Dk0-3">
          <mxGeometry relative="1" as="geometry">
            <Array as="points">
              <mxPoint x="390" y="1190" />
              <mxPoint x="330" y="1190" />
            </Array>
          </mxGeometry>
        </mxCell>
        <mxCell id="n5YymYNzjmNfupJJ3Dk0-8" value="seconda form:&lt;div&gt;interrogazioni SQL&lt;/div&gt;" style="text;html=1;align=center;verticalAlign=middle;resizable=0;points=[];autosize=1;strokeColor=none;fillColor=none;labelBackgroundColor=none;fontColor=#1D3557;" vertex="1" parent="1">
          <mxGeometry x="300" y="1183" width="120" height="40" as="geometry" />
        </mxCell>
      </root>
    </mxGraphModel>
  </diagram>
</mxfile>
